<svg width="32" height="32" xmlns="http://www.w3.org/2000/svg"><g fill="none" fill-rule="evenodd"><path fill="#FFF" d="M0 0H32V32H0z"/><path fill="#1A73E9" d="M23.7456443 20.7330831L25.2696513 18.0256474 30.823678 18.0256474 32 15.932958 28.469545 9.65639101 22.7003556 9.65639101 21.1004088 6.82585594 19.4662146 6.82585594 19.4662146 4.85626591 22.2074916 4.85626591 23.8059494 7.68680098 27.3617177 7.68680098 23.9012464 1.53333333 17.0666667 1.53333333 17.0666667 9.77949039 19.8161332 9.77949039 20.9358726 11.7483298 17.0666667 11.7483298 17.0666667 15.8098587 20.7117759 15.8098587 22.3742613 12.8562242 26.7780237 12.8562242 27.8865955 14.8258142 23.4820886 14.8258142 21.8188586 17.7794487 17.0666667 17.7794487 17.0666667 25.4101089 22.9914581 25.4101089 21.8836308 27.3789483 17.0666667 27.3789483 17.0666667 30.3333333 23.9012464 30.3333333 29.7158507 19.9952375 26.3767341 19.9952375 24.8534716 22.7026732 19.4662146 22.7026732 19.4662146 20.7330831zM8.54915412 20.9108516L6.97071825 18.1031406 1.2183335 18.1031406 0 15.9329441 3.65654269 9.42391166 9.63177452 9.42391166 11.2888623 6.48854197 12.9814205 6.48854197 12.9814205 4.44600415 10.1422408 4.44600415 8.48669525 7.38137385 4.80393525 7.38137385 8.38799482 1 15.4666667 1 15.4666667 9.55157028 12.6190049 9.55157028 11.4592748 11.5933297 15.4666667 11.5933297 15.4666667 15.8052855 11.691375 15.8052855 9.96951507 12.7422572 5.40847542 12.7422572 4.26031176 14.784795 8.82212251 14.784795 10.5447535 17.8478233 15.4666667 17.8478233 15.4666667 25.7611005 9.33027553 25.7611005 10.4776681 27.8028599 15.4666667 27.8028599 15.4666667 30.8666667 8.38799482 30.8666667 2.36572606 20.1456784 5.82409679 20.1456784 7.40176156 22.9533895 12.9814205 22.9533895 12.9814205 20.9108516z"/></g></svg>